<svg version="1.1" viewBox="0 0 16 16" xmlns="http://www.w3.org/2000/svg">
 <defs>
  <style id="current-color-scheme" type="text/css">.ColorScheme-Text {
        color:#eff0f1;
      }</style>
 </defs>
 <path class="ColorScheme-Text" d="m2.375 2c-0.1285 0-0.2515 0.01355-0.375 0.03125v0.9688c0.5523 0 1 0.4477 1 1v8c0 0.5523-0.4477 1-1 1v0.9688c0.1235 0.018 0.2465 0.03125 0.375 0.03125h7.875c2.078 0 3.75-1.672 3.75-3.75 0-1.654-1.082-3.03-2.562-3.531 0.6331-0.4784 1.062-1.236 1.062-2.094 0-1.454-1.171-2.625-2.625-2.625h-7.5zm3.625 1h3c0.5523 0 1 0.8954 1 2s-0.4477 2-1 2h-3v-4zm0 5h3c0.05347 0 0.1038 0.0261 0.1562 0.03125 1.03 0.1012 1.844 1.155 1.844 2.469 0 1.381-0.8954 2.5-2 2.5h-3v-5z" fill="#f0f0f0"/>
</svg>
